<svg width="210" height="167" viewBox="0 0 210 167" fill="none" xmlns="http://www.w3.org/2000/svg">
<path fill-rule="evenodd" clip-rule="evenodd" d="M0 64.7727C0 93.8221 19.1231 118.405 45.4674 126.62C55.2566 149.965 78.327 166.364 105.227 166.364C135.935 166.364 161.652 144.995 168.319 116.316C170.269 116.646 172.274 116.818 174.318 116.818C194.025 116.818 210 100.843 210 81.1364C210 61.4298 194.025 45.4546 174.318 45.4546C164.984 45.4546 156.487 49.0388 150.128 54.9061C142.975 48.0251 134.244 42.7722 124.533 39.7439C114.743 16.3983 91.6731 0 64.7727 0C28.9997 0 0 28.9997 0 64.7727Z" fill="#3BC17B" fill-opacity="0.4"/>
</svg>
