<svg width="182" height="163" viewBox="0 0 182 163" fill="none" xmlns="http://www.w3.org/2000/svg">
<g filter="url(#filter0_i_14_447)">
<ellipse rx="8.65457" ry="26.8281" transform="matrix(0.963904 -0.26625 0.213364 0.976973 122.066 38.5147)" fill="#0EBF7E"/>
<ellipse rx="18.6892" ry="6.08482" transform="matrix(0.99996 -0.00898277 0.00710233 0.999975 153.268 67.7475)" fill="#0EBF7E"/>
<ellipse rx="18.7391" ry="6.05017" transform="matrix(0.606336 -0.795209 0.719811 0.69417 146.091 46.0711)" fill="#0EBF7E"/>
</g>
<g filter="url(#filter1_d_14_447)">
<path d="M74.9605 118.406H79.7066L85.859 136.705L91.9937 118.406H96.7398L87.775 144H83.9254L74.9605 118.406ZM72.2184 118.406H77.0523L77.9488 137.373V144H72.2184V118.406ZM94.648 118.406H99.4996V144H93.7516V137.373L94.648 118.406ZM112.137 144.352C110.625 144.352 109.272 144.111 108.077 143.631C106.881 143.15 105.868 142.488 105.036 141.645C104.215 140.789 103.588 139.805 103.155 138.691C102.721 137.578 102.504 136.389 102.504 135.123V134.455C102.504 133.037 102.704 131.73 103.102 130.535C103.5 129.34 104.08 128.303 104.842 127.424C105.616 126.533 106.565 125.848 107.69 125.367C108.815 124.875 110.098 124.629 111.539 124.629C112.887 124.629 114.088 124.852 115.143 125.297C116.198 125.73 117.088 126.357 117.815 127.178C118.541 127.986 119.092 128.965 119.467 130.113C119.854 131.25 120.047 132.527 120.047 133.945V136.195H104.719V132.662H114.668V132.24C114.668 131.572 114.545 130.986 114.299 130.482C114.065 129.979 113.713 129.592 113.245 129.322C112.788 129.041 112.207 128.9 111.504 128.9C110.836 128.9 110.28 129.041 109.834 129.322C109.389 129.604 109.032 130.002 108.762 130.518C108.504 131.021 108.317 131.613 108.2 132.293C108.082 132.961 108.024 133.682 108.024 134.455V135.123C108.024 135.861 108.123 136.535 108.323 137.145C108.522 137.754 108.815 138.275 109.202 138.709C109.588 139.143 110.057 139.482 110.608 139.729C111.159 139.975 111.786 140.098 112.489 140.098C113.356 140.098 114.182 139.934 114.967 139.605C115.752 139.266 116.432 138.738 117.006 138.023L119.573 140.959C119.186 141.521 118.641 142.066 117.938 142.594C117.246 143.109 116.414 143.531 115.442 143.859C114.469 144.188 113.368 144.352 112.137 144.352Z" fill="white"/>
</g>
<g filter="url(#filter2_d_14_447)">
<path d="M69.9562 94.4375V93.7812C69.9562 91.3021 70.3104 89.0208 71.0187 86.9375C71.7271 84.8333 72.7687 83.0104 74.1437 81.4688C75.5187 79.9271 77.2062 78.7292 79.2062 77.875C81.2062 77 83.4979 76.5625 86.0812 76.5625C88.7062 76.5625 91.0187 77 93.0187 77.875C95.0396 78.7292 96.7375 79.9271 98.1125 81.4688C99.4875 83.0104 100.529 84.8333 101.237 86.9375C101.946 89.0208 102.3 91.3021 102.3 93.7812V94.4375C102.3 96.8958 101.946 99.1771 101.237 101.281C100.529 103.365 99.4875 105.188 98.1125 106.75C96.7375 108.292 95.05 109.49 93.05 110.344C91.05 111.198 88.7479 111.625 86.1437 111.625C83.5604 111.625 81.2583 111.198 79.2375 110.344C77.2167 109.49 75.5187 108.292 74.1437 106.75C72.7687 105.188 71.7271 103.365 71.0187 101.281C70.3104 99.1771 69.9562 96.8958 69.9562 94.4375ZM79.7375 93.7812V94.4375C79.7375 95.7708 79.8417 97.0208 80.05 98.1875C80.2792 99.3542 80.6437 100.375 81.1437 101.25C81.6437 102.125 82.3 102.812 83.1125 103.312C83.9458 103.792 84.9562 104.031 86.1437 104.031C87.3312 104.031 88.3312 103.792 89.1437 103.312C89.9562 102.812 90.6125 102.125 91.1125 101.25C91.6125 100.375 91.9667 99.3542 92.175 98.1875C92.4042 97.0208 92.5187 95.7708 92.5187 94.4375V93.7812C92.5187 92.4688 92.4042 91.2396 92.175 90.0938C91.9667 88.9271 91.6125 87.8958 91.1125 87C90.6125 86.1042 89.9458 85.4062 89.1125 84.9062C88.3 84.4062 87.2896 84.1562 86.0812 84.1562C84.9146 84.1562 83.925 84.4062 83.1125 84.9062C82.3 85.4062 81.6437 86.1042 81.1437 87C80.6437 87.8958 80.2792 88.9271 80.05 90.0938C79.8417 91.2396 79.7375 92.4688 79.7375 93.7812ZM117.406 77.1875V111H107.625V77.1875H117.406ZM107.031 68.4375C107.031 67.0208 107.531 65.8646 108.531 64.9688C109.531 64.0521 110.844 63.5938 112.469 63.5938C114.094 63.5938 115.406 64.0521 116.406 64.9688C117.427 65.8646 117.938 67.0208 117.938 68.4375C117.938 69.8333 117.427 70.9896 116.406 71.9062C115.406 72.8021 114.094 73.25 112.469 73.25C110.844 73.25 109.531 72.8021 108.531 71.9062C107.531 70.9896 107.031 69.8333 107.031 68.4375ZM133.7 84.4062V111H123.919V77.1875H133.106L133.7 84.4062ZM132.419 92.9062L129.981 92.9688C129.981 90.4271 130.294 88.1458 130.919 86.125C131.544 84.1042 132.429 82.3854 133.575 80.9688C134.742 79.5312 136.127 78.4375 137.731 77.6875C139.356 76.9375 141.148 76.5625 143.106 76.5625C144.69 76.5625 146.138 76.7917 147.45 77.25C148.763 77.7083 149.888 78.4479 150.825 79.4688C151.783 80.4688 152.513 81.8021 153.013 83.4688C153.513 85.1146 153.763 87.1458 153.763 89.5625V111H143.95V89.5312C143.95 88.1146 143.752 87.0208 143.356 86.25C142.96 85.4792 142.377 84.9375 141.606 84.625C140.856 84.3125 139.94 84.1562 138.856 84.1562C137.71 84.1562 136.731 84.3854 135.919 84.8438C135.106 85.2812 134.44 85.8958 133.919 86.6875C133.398 87.4792 133.013 88.4062 132.763 89.4688C132.533 90.5312 132.419 91.6771 132.419 92.9062Z" fill="white"/>
</g>
<g filter="url(#filter3_d_14_447)">
<path d="M36.779 145.92C31.8297 145.92 27.307 145.024 23.211 143.232L28.075 127.744C30.635 129.109 32.8963 129.792 34.859 129.792C39.1257 129.792 41.259 127.147 41.259 121.856V58.752H59.179V123.392C59.179 130.304 57.131 135.808 53.035 139.904C49.0243 143.915 43.6057 145.92 36.779 145.92Z" fill="#0EBF7E"/>
</g>
<defs>
<filter id="filter0_i_14_447" x="111.948" y="12.2017" width="60.0088" height="65.6328" filterUnits="userSpaceOnUse" color-interpolation-filters="sRGB">
<feFlood flood-opacity="0" result="BackgroundImageFix"/>
<feBlend mode="normal" in="SourceGraphic" in2="BackgroundImageFix" result="shape"/>
<feColorMatrix in="SourceAlpha" type="matrix" values="0 0 0 0 0 0 0 0 0 0 0 0 0 0 0 0 0 0 127 0" result="hardAlpha"/>
<feOffset dy="4"/>
<feGaussianBlur stdDeviation="2"/>
<feComposite in2="hardAlpha" operator="arithmetic" k2="-1" k3="1"/>
<feColorMatrix type="matrix" values="0 0 0 0 0.02 0 0 0 0 1 0 0 0 0 0 0 0 0 0.25 0"/>
<feBlend mode="normal" in2="shape" result="effect1_innerShadow_14_447"/>
</filter>
<filter id="filter1_d_14_447" x="68.2184" y="118.406" width="55.8289" height="33.9453" filterUnits="userSpaceOnUse" color-interpolation-filters="sRGB">
<feFlood flood-opacity="0" result="BackgroundImageFix"/>
<feColorMatrix in="SourceAlpha" type="matrix" values="0 0 0 0 0 0 0 0 0 0 0 0 0 0 0 0 0 0 127 0" result="hardAlpha"/>
<feOffset dy="4"/>
<feGaussianBlur stdDeviation="2"/>
<feComposite in2="hardAlpha" operator="out"/>
<feColorMatrix type="matrix" values="0 0 0 0 0.654167 0 0 0 0 0.654167 0 0 0 0 0.654167 0 0 0 0.25 0"/>
<feBlend mode="normal" in2="BackgroundImageFix" result="effect1_dropShadow_14_447"/>
<feBlend mode="normal" in="SourceGraphic" in2="effect1_dropShadow_14_447" result="shape"/>
</filter>
<filter id="filter2_d_14_447" x="65.9563" y="63.5938" width="91.8062" height="56.0312" filterUnits="userSpaceOnUse" color-interpolation-filters="sRGB">
<feFlood flood-opacity="0" result="BackgroundImageFix"/>
<feColorMatrix in="SourceAlpha" type="matrix" values="0 0 0 0 0 0 0 0 0 0 0 0 0 0 0 0 0 0 127 0" result="hardAlpha"/>
<feOffset dy="4"/>
<feGaussianBlur stdDeviation="2"/>
<feComposite in2="hardAlpha" operator="out"/>
<feColorMatrix type="matrix" values="0 0 0 0 0.654167 0 0 0 0 0.654167 0 0 0 0 0.654167 0 0 0 0.25 0"/>
<feBlend mode="normal" in2="BackgroundImageFix" result="effect1_dropShadow_14_447"/>
<feBlend mode="normal" in="SourceGraphic" in2="effect1_dropShadow_14_447" result="shape"/>
</filter>
<filter id="filter3_d_14_447" x="19.2111" y="58.752" width="43.9679" height="95.1681" filterUnits="userSpaceOnUse" color-interpolation-filters="sRGB">
<feFlood flood-opacity="0" result="BackgroundImageFix"/>
<feColorMatrix in="SourceAlpha" type="matrix" values="0 0 0 0 0 0 0 0 0 0 0 0 0 0 0 0 0 0 127 0" result="hardAlpha"/>
<feOffset dy="4"/>
<feGaussianBlur stdDeviation="2"/>
<feComposite in2="hardAlpha" operator="out"/>
<feColorMatrix type="matrix" values="0 0 0 0 0 0 0 0 0 0.816667 0 0 0 0 0.0816666 0 0 0 0.25 0"/>
<feBlend mode="normal" in2="BackgroundImageFix" result="effect1_dropShadow_14_447"/>
<feBlend mode="normal" in="SourceGraphic" in2="effect1_dropShadow_14_447" result="shape"/>
</filter>
</defs>
</svg>
